<?xml version="1.0" encoding="UTF-8" standalone="no"?>
<!-- Created with Inkscape (http://www.inkscape.org/) -->

<svg
   xmlns:dc="http://purl.org/dc/elements/1.1/"
   xmlns:cc="http://creativecommons.org/ns#"
   xmlns:rdf="http://www.w3.org/1999/02/22-rdf-syntax-ns#"
   xmlns:svg="http://www.w3.org/2000/svg"
   xmlns="http://www.w3.org/2000/svg"
   xmlns:sodipodi="http://sodipodi.sourceforge.net/DTD/sodipodi-0.dtd"
   xmlns:inkscape="http://www.inkscape.org/namespaces/inkscape"
   width="24"
   height="24"
   viewBox="1 1 6.4666667 6.4666667"
   version="1.1"
   id="svg8"
   sodipodi:docname="cogwheel2.svg"
   inkscape:version="0.92.4 (5da689c313, 2019-01-14)">
  <defs
     id="defs2" />
  <sodipodi:namedview
     id="base"
     pagecolor="#ffffff"
     bordercolor="#666666"
     borderopacity="1.0"
     inkscape:pageopacity="0.0"
     inkscape:pageshadow="2"
     inkscape:zoom="15.839192"
     inkscape:cx="38.900335"
     inkscape:cy="12.720747"
     inkscape:document-units="mm"
     inkscape:current-layer="layer1"
     showgrid="false"
     units="px"
     inkscape:window-width="2560"
     inkscape:window-height="1377"
     inkscape:window-x="-8"
     inkscape:window-y="724"
     inkscape:window-maximized="1" />
  <metadata
     id="metadata5">
    <rdf:RDF>
      <cc:Work
         rdf:about="">
        <dc:format>image/svg+xml</dc:format>
        <dc:type
           rdf:resource="http://purl.org/dc/dcmitype/StillImage" />
        <dc:title></dc:title>
      </cc:Work>
    </rdf:RDF>
  </metadata>
  <g
     inkscape:label="Layer 1"
     inkscape:groupmode="layer"
     id="layer1"
     transform="translate(0,-288.53333)">
    <path
       style="fill:#a8b8d1;stroke:#222236;stroke-width:0.98296899;stroke-opacity:1;fill-opacity:1;opacity:0.8"
       d="m 12.013672,2.1875 a 9.8195871,9.8195871 0 0 0 -1.978516,0.1992188 v 2.015625 A 7.8556694,7.8556694 0 0 0 8.0175781,5.2402344 L 6.5859375,3.8085938 A 9.8195871,9.8195871 0 0 0 5.0566406,5.0566406 9.8195871,9.8195871 0 0 0 3.8164062,6.59375 L 5.2363281,8.0136719 A 7.8556694,7.8556694 0 0 0 4.4042969,10.035156 H 2.3867188 a 9.8195871,9.8195871 0 0 0 0,3.929688 h 2.015625 a 7.8556694,7.8556694 0 0 0 0.8378906,2.017578 l -1.4316406,1.43164 a 9.8195871,9.8195871 0 0 0 1.2480468,1.529297 9.8195871,9.8195871 0 0 0 1.5371094,1.240235 l 1.4199219,-1.419922 a 7.8556694,7.8556694 0 0 0 2.0214841,0.832031 v 2.017578 a 9.8195871,9.8195871 0 0 0 3.929688,0 v -2.015625 a 7.8556694,7.8556694 0 0 0 2.017578,-0.83789 l 1.43164,1.43164 a 9.8195871,9.8195871 0 0 0 1.529297,-1.248047 9.8195871,9.8195871 0 0 0 1.240235,-1.537109 l -1.419922,-1.419922 a 7.8556694,7.8556694 0 0 0 0.832031,-2.021484 h 2.017578 a 9.8195871,9.8195871 0 0 0 0,-3.929688 h -2.015625 a 7.8556694,7.8556694 0 0 0 -0.83789,-2.0175779 l 1.43164,-1.4316406 A 9.8195871,9.8195871 0 0 0 18.943359,5.0566406 9.8195871,9.8195871 0 0 0 17.40625,3.8164062 L 15.986328,5.2363281 A 7.8556694,7.8556694 0 0 0 13.964844,4.4042969 V 2.3867188 A 9.8195871,9.8195871 0 0 0 12.013672,2.1875 Z M 12,8.0722656 A 3.9278348,3.9278348 0 0 1 15.927734,12 3.9278348,3.9278348 0 0 1 12,15.927734 3.9278348,3.9278348 0 0 1 8.0722656,12 3.9278348,3.9278348 0 0 1 12,8.0722656 Z"
       id="rect3717"
       inkscape:connector-curvature="0"
       transform="matrix(0.26944445,0,0,0.26944445,1,289.53333)" />
    <circle
       id="path69"
       cx="3.7041664"
       cy="292.76666"
       style="stroke-width:0.26458332"
       r="0" />
  </g>
</svg>
